{
  "title": "Australian Survivor - S03E20",
  "uid": 16004708,
  "size": 380013178,
  "categoryP": "video",
  "categoryS": "tv_shows",
  "magnet": "?xt=urn:btih:dc612e864980eb1fda9b633baf3f82c51525adc3&amp;dn=Australian+Survivor+-+S03E20&amp;tr=udp%3A%2F%2Ftracker.leechers-paradise.org%3A6969&amp;tr=udp%3A%2F%2Fzer0day.ch%3A1337&amp;tr=udp%3A%2F%2Fopen.demonii.com%3A1337&amp;tr=udp%3A%2F%2Ftracker.coppersurfer.tk%3A6969&amp;tr=udp%3A%2F%2Fexodus.desync.com%3A6969",
  "seeders": 52,
  "leechers": 9,
  "uploader": "Bullrout",
  "files": 1,
  "time": 1476161697,
  "description": "Australian Survivor - S03E20\r\n\r\nTribal politics continue to escalate but one tribemate thinks their back is against the wall and no amount of scrambling can save them. Will they get a lifeline?\r\n\r\nComplete name                            : Australian Survivor - S03E20.mp4\r\nFormat                                   : MPEG-4\r\nFormat profile                           : Base Media / Version 2\r\nCodec ID                                 : mp42 (mp42/isom/avc1)\r\nFile size                                : 362 MiB\r\nDuration                                 : 45 min 46 s\r\nOverall bit rate mode                    : Variable\r\nOverall bit rate                         : 1 107 kb/s\r\n\r\nVideo\r\nID                                       : 2\r\nFormat                                   : AVC\r\nFormat/Info                              : Advanced Video Codec\r\nFormat profile                           :   \r\nFormat settings, CABAC                   : Yes\r\nFormat settings, ReFrames                : 3 frames\r\nCodec ID                                 : avc1\r\nCodec ID/Info                            : Advanced Video Coding\r\nDuration                                 : 45 min 46 s\r\nBit rate mode                            : Variable\r\nBit rate                                 : 975 kb/s\r\nMaximum bit rate                         : 1 000 kb/s\r\nWidth                                    : 720 pixels\r\nHeight                                   : 404 pixels\r\nDisplay aspect ratio                     : 16:9\r\nOriginal display aspect ratio            : 16:9\r\nFrame rate mode                          : Constant\r\nFrame rate                               : 25.000 FPS\r\nStandard                                 : PAL\r\nColor space                              : YUV\r\nChroma subsampling                       : 4:2:0\r\nBit depth                                : 8 bits\r\nScan type                                : Progressive\r\nBits/(Pixel*Frame)                       : 0.134\r\nStream size                              : 319 MiB (88%)\r\nWriting library                          : x264 core 112\r\nColor range                              : Limited\r\nColor primaries                          : BT.601 PAL\r\nTransfer characteristics                 : BT.470 System B, BT.470 System G\r\nMatrix coefficients                      : BT.601\r\n\r\nAudio\r\nID                                       : 1\r\nFormat                                   : AAC\r\nFormat/Info                              : Advanced Audio Codec\r\nFormat profile                           : LC\r\nCodec ID                                 : 40\r\nDuration                                 : 45 min 46 s\r\nBit rate mode                            : Variable\r\nBit rate                                 : 128 kb/s\r\nMaximum bit rate                         : 576 kb/s\r\nChannel(s)                               : 2 channels\r\nChannel positions                        : Front: L R\r\nSampling rate                            : 48.0 kHz\r\nFrame rate                               : 46.875 FPS (1024 spf)\r\nCompression mode                         : Lossy\r\nStream size                              : 41.9 MiB (12%)",
  "parsed": {
    "xt": "urn:btih:dc612e864980eb1fda9b633baf3f82c51525adc3",
    "dn": "Australian Survivor - S03E20",
    "tr": [
      "udp://exodus.desync.com:6969",
      "udp://open.demonii.com:1337",
      "udp://tracker.coppersurfer.tk:6969",
      "udp://tracker.leechers-paradise.org:6969",
      "udp://zer0day.ch:1337"
    ],
    "infoHash": "dc612e864980eb1fda9b633baf3f82c51525adc3",
    "infoHashBuffer": {
      "type": "Buffer",
      "data": [
        220,
        97,
        46,
        134,
        73,
        128,
        235,
        31,
        218,
        155,
        99,
        59,
        175,
        63,
        130,
        197,
        21,
        37,
        173,
        195
      ]
    },
    "name": "Australian Survivor - S03E20",
    "announce": [
      "udp://exodus.desync.com:6969",
      "udp://open.demonii.com:1337",
      "udp://tracker.coppersurfer.tk:6969",
      "udp://tracker.leechers-paradise.org:6969",
      "udp://zer0day.ch:1337"
    ],
    "urlList": []
  },
  "previous": 48,
  "peers": 0,
  "last_updated": "2016-12-27T14:54:40.374Z"
}